Coordinates
version=1
nRows=17
nColumns=38
inDegrees=no

Units are S.I. units (second, meters, Newtons, ...)
If the header above contains a line with 'inDegrees', this indicates whether rotational values are in degrees (yes) or radians (no).

endheader
time	pelvis_tilt	pelvis_list	pelvis_rotation	pelvis_tx	pelvis_ty	pelvis_tz	hip_flexion_r	hip_adduction_r	hip_rotation_r	knee_angle_r	ankle_angle_r	subtalar_angle_r	mtp_angle_r	hip_flexion_l	hip_adduction_l	hip_rotation_l	knee_angle_l	ankle_angle_l	subtalar_angle_l	mtp_angle_l	lumbar_extension	lumbar_bending	lumbar_rotation	arm_flex_r	arm_add_r	arm_rot_r	elbow_flex_r	pro_sup_r	wrist_flex_r	wrist_dev_r	arm_flex_l	arm_add_l	arm_rot_l	elbow_flex_l	pro_sup_l	wrist_flex_l	wrist_dev_l
0	0.653693	1.51745	-2.17943	0.888914	1.70812	0.914923	-0.241015	-0.00513469	-0.205522	0.157767	0.314011	0	0	0.365251	-0.000362451	-0.192954	0	0.100178	0	0	-0.18707	-0.0528515	-0.127314	-0.269719	-0.252453	0.0245931	0.953288	0.443525	0	0	-0.188898	-0.246967	0.117139	0.607368	1.41773	0	0
0.01	0.625896	1.51707	-2.15375	0.889815	1.69807	0.912962	-0.247841	-0.00646412	-0.205945	0.171167	0.323128	0	0	0.368182	-0.000667164	-0.176808	0	0.0994536	0	0	-0.189035	-0.054577	-0.123722	-0.267946	-0.252032	0.0239877	0.950901	0.443323	0	0	-0.187626	-0.247438	0.115943	0.60507	1.4168	0	0
0.02	0.631201	1.51482	-2.16249	0.890654	1.68716	0.911151	-0.255144	-0.0111032	-0.209766	0.186903	0.333329	0	0	0.366793	0.00123662	-0.163672	0	0.0991997	0	0	-0.190122	-0.059504	-0.120457	-0.266976	-0.251061	0.0243188	0.947128	0.443409	0	0	-0.18889	-0.248426	0.113341	0.602244	1.41651	0	0
0.03	0.657832	1.51203	-2.1933	0.891468	1.67571	0.909445	-0.262748	-0.0173101	-0.213264	0.202636	0.342697	0	0	0.36254	0.00430757	-0.151258	0	0.0992155	0	0	-0.189943	-0.066172	-0.116843	-0.267155	-0.249589	0.0246008	0.942693	0.4436	0	0	-0.19111	-0.249963	0.110628	0.598775	1.41771	0	0
0.04	0.681311	1.5093	-2.2218	0.89225	1.66383	0.90794	-0.270725	-0.0259589	-0.218412	0.21855	0.351953	0	0	0.359086	0.00574204	-0.143971	0.00913025	0.102861	0	0	-0.18898	-0.0730004	-0.111937	-0.268753	-0.247738	0.0242964	0.937843	0.443517	0	0	-0.193471	-0.251644	0.107636	0.594877	1.41987	0	0
0.05	0.689197	1.50624	-2.23307	0.89302	1.65215	0.906453	-0.277888	-0.0321605	-0.220944	0.236973	0.358169	0	0	0.373727	0.00414254	-0.153829	0.0679673	0.121176	0	0	-0.189178	-0.0794669	-0.107348	-0.271236	-0.24552	0.0238468	0.933109	0.443393	0	0	-0.195215	-0.253848	0.103936	0.592195	1.42454	0	0
0.06	0.688993	1.50595	-2.23688	0.893714	1.64013	0.904836	-0.283171	-0.0359502	-0.220217	0.255166	0.361602	0	0	0.392113	-0.0012406	-0.169368	0.134585	0.144362	0	0	-0.185989	-0.0837878	-0.101543	-0.275155	-0.243701	0.023586	0.92858	0.44329	0	0	-0.198133	-0.255799	0.0993789	0.589781	1.42951	0	0
0.07	0.685024	1.50559	-2.23784	0.894547	1.62785	0.903383	-0.288021	-0.0402928	-0.21813	0.274811	0.363472	0	0	0.405836	-0.00640781	-0.183544	0.191959	0.161665	0	0	-0.182266	-0.0877259	-0.0945036	-0.279933	-0.242583	0.0236981	0.924268	0.442603	0	0	-0.20137	-0.25716	0.0940051	0.587385	1.43441	0	0
0.08	0.688525	1.50369	-2.24728	0.895533	1.61533	0.902314	-0.292767	-0.0472569	-0.215751	0.296665	0.362594	0	0	0.411394	-0.00880183	-0.195519	0.231206	0.164955	0	0	-0.179085	-0.0929698	-0.0866464	-0.284618	-0.241357	0.0236266	0.918915	0.441924	0	0	-0.204719	-0.258152	0.0883513	0.585902	1.43795	0	0
0.09	0.707044	1.50032	-2.27157	0.89677	1.6026	0.901677	-0.296545	-0.0571143	-0.216076	0.321578	0.358702	0	0	0.409273	-0.00749561	-0.206305	0.25132	0.150446	0	0	-0.175726	-0.0999859	-0.0786976	-0.28908	-0.23917	0.0220783	0.911396	0.441415	0	0	-0.207784	-0.258995	0.0822237	0.583546	1.44132	0	0
0.1	0.736547	1.49646	-2.30531	0.898312	1.58976	0.90137	-0.298995	-0.0683668	-0.218179	0.348155	0.351518	0	0	0.402806	-0.00356143	-0.217062	0.26044	0.124992	0	0	-0.171885	-0.107773	-0.0728008	-0.292801	-0.236337	0.0204669	0.902412	0.441357	0	0	-0.211483	-0.259876	0.0756375	0.581526	1.44259	0	0
0.11	0.771491	1.49316	-2.34281	0.900159	1.57688	0.901254	-0.298423	-0.0798382	-0.220698	0.378371	0.340548	0	0	0.396623	0.000935466	-0.228048	0.270925	0.10325	0	0	-0.16705	-0.115252	-0.0687157	-0.29603	-0.233179	0.0188807	0.892342	0.442449	0	0	-0.215236	-0.260297	0.0673492	0.580056	1.4441	0	0
0.12	0.814806	1.49013	-2.38772	0.902337	1.56392	0.901292	-0.293952	-0.0926635	-0.223387	0.413836	0.325154	0	0	0.392946	0.00560915	-0.23844	0.288395	0.0927279	0	0	-0.160906	-0.122653	-0.0658507	-0.299067	-0.230224	0.0176713	0.881505	0.444971	0	0	-0.219574	-0.260346	0.058759	0.579728	1.44666	0	0
0.13	0.858411	1.48689	-2.43201	0.904673	1.55093	0.901605	-0.286264	-0.106358	-0.225785	0.454054	0.303786	0	0	0.391851	0.00973979	-0.24638	0.313122	0.0913373	0	0	-0.154527	-0.130104	-0.0642926	-0.301646	-0.227111	0.017212	0.870297	0.44567	0	0	-0.224818	-0.261318	0.0525189	0.581153	1.44652	0	0
0.14	0.903103	1.48299	-2.47549	0.907095	1.53788	0.902311	-0.275779	-0.120882	-0.228503	0.498593	0.276091	0	0	0.391663	0.0139294	-0.25164	0.341498	0.0940593	0	0	-0.148117	-0.138263	-0.0650535	-0.303571	-0.222973	0.0174772	0.857591	0.446731	0	0	-0.230736	-0.263458	0.0476544	0.58376	1.44347	0	0
0.15	0.948553	1.47788	-2.51818	0.909613	1.52482	0.903437	-0.26311	-0.136932	-0.231019	0.546417	0.240879	0	0	0.389143	0.01954	-0.255151	0.366643	0.0979414	0	0	-0.142161	-0.147659	-0.067649	-0.305032	-0.218165	0.01893	0.843505	0.449755	0	0	-0.236803	-0.266664	0.0437887	0.587593	1.43667	0	0
0.16	0.995533	1.47284	-2.55958	0.912335	1.51183	0.904835	-0.247171	-0.153379	-0.234474	0.597417	0.196686	0	0	0.384281	0.0268694	-0.256562	0.385787	0.102963	0	0	-0.13595	-0.157108	-0.0732754	-0.306133	-0.213133	0.0221115	0.828356	0.453589	0	0	-0.243443	-0.270948	0.0406697	0.593559	1.42728	0	0
